<svg xmlns="http://www.w3.org/2000/svg" viewBox="0 0 64 64">
  <defs>
    <linearGradient id="g" x1="0" x2="1" y1="0" y2="1">
      <stop offset="0" stop-color="#58c7ff" />
      <stop offset="1" stop-color="#8b5cff" />
    </linearGradient>
  </defs>
  <rect width="64" height="64" rx="16" fill="url(#g)" />
  <path
    d="M32 10c6 0 11 5 11 11 0 3-1 6-3 8l6 10h6v6h-8l-3 5h9v6H14v-6h9l-3-5h-8v-6h6l6-10c-2-2-3-5-3-8 0-6 5-11 11-11Z"
    fill="rgba(0,0,0,.78)"
  />
  <path d="M28 30h8v26h-8z" fill="rgba(0,0,0,.78)" />
  <path d="M20 42h24v6H20z" fill="rgba(0,0,0,.78)" />
</svg>
